<svg id="svg" version="1.1" xmlns="http://www.w3.org/2000/svg" xmlns:xlink="http://www.w3.org/1999/xlink" width="400" height="400" viewBox="0, 0, 400,400"><g id="svgg"><path id="path0" d="M140.000 23.600 C 140.423 23.874,139.835 23.999,138.000 24.024 C 135.386 24.061,128.706 25.054,130.200 25.183 C 130.640 25.221,130.017 25.517,128.815 25.840 C 127.614 26.163,126.534 26.566,126.415 26.736 C 126.297 26.906,125.570 27.295,124.800 27.600 C 124.030 27.905,123.310 28.255,123.200 28.377 C 122.784 28.841,121.188 29.600,120.629 29.600 C 120.309 29.600,119.919 29.808,119.762 30.062 C 119.573 30.367,119.654 30.414,120.000 30.200 C 120.346 29.986,120.427 30.033,120.238 30.338 C 120.081 30.592,119.759 30.800,119.522 30.800 C 119.285 30.800,118.683 31.205,118.182 31.700 C 117.682 32.195,116.551 33.140,115.668 33.800 C 114.785 34.460,113.831 35.450,113.548 36.000 C 113.265 36.550,112.666 37.305,112.217 37.677 C 111.768 38.050,111.392 38.590,111.382 38.877 C 111.372 39.165,111.147 39.355,110.882 39.300 C 110.617 39.245,110.378 39.380,110.350 39.600 C 110.322 39.820,110.253 40.135,110.196 40.300 C 110.139 40.465,109.961 41.005,109.800 41.500 C 109.638 41.995,109.348 42.400,109.153 42.400 C 108.959 42.400,108.800 42.646,108.800 42.946 C 108.800 43.246,108.440 43.950,108.000 44.509 C 107.560 45.069,107.203 45.678,107.206 45.863 C 107.209 46.048,107.403 45.930,107.637 45.600 C 107.870 45.270,107.988 45.180,107.900 45.400 C 107.068 47.461,106.579 48.400,106.338 48.400 C 105.686 48.400,103.897 47.554,103.312 46.969 C 102.802 46.459,102.621 46.440,102.348 46.870 C 102.160 47.167,102.010 47.208,102.006 46.963 C 102.000 46.493,99.431 45.600,98.087 45.600 C 97.636 45.600,97.207 45.425,97.133 45.211 C 96.635 43.759,78.617 43.688,77.617 45.135 C 77.498 45.308,76.365 45.676,75.100 45.953 C 73.835 46.231,72.797 46.669,72.794 46.929 C 72.789 47.267,72.705 47.274,72.494 46.955 C 72.315 46.684,71.887 46.633,71.400 46.826 C 70.860 47.041,70.795 47.160,71.200 47.192 C 71.530 47.219,71.080 47.537,70.200 47.899 C 69.320 48.261,68.360 48.793,68.068 49.082 C 67.775 49.371,67.405 49.526,67.245 49.428 C 67.085 49.329,66.624 49.687,66.221 50.224 C 65.818 50.761,65.302 51.200,65.075 51.200 C 64.848 51.200,63.714 52.171,62.555 53.358 C 61.397 54.544,60.393 55.480,60.324 55.437 C 60.256 55.395,59.801 55.774,59.314 56.280 C 58.827 56.786,58.637 57.200,58.891 57.200 C 59.145 57.200,59.004 57.455,58.576 57.768 C 58.149 58.080,57.792 58.575,57.782 58.868 C 57.772 59.160,57.553 59.357,57.296 59.305 C 57.039 59.253,56.612 59.934,56.347 60.819 C 56.002 61.970,55.760 62.282,55.498 61.914 C 55.239 61.551,55.182 61.639,55.305 62.212 C 55.401 62.658,55.229 63.257,54.923 63.543 C 54.618 63.828,54.262 64.588,54.134 65.231 C 54.005 65.874,53.764 66.400,53.597 66.400 C 53.236 66.400,52.231 69.960,52.366 70.757 C 52.419 71.064,52.223 71.462,51.931 71.643 C 51.170 72.113,50.980 88.518,51.727 89.279 C 52.008 89.566,52.467 90.835,52.748 92.100 C 53.028 93.365,53.401 94.400,53.577 94.400 C 53.752 94.400,54.124 95.215,54.403 96.210 C 54.682 97.206,55.065 98.117,55.255 98.234 C 56.058 98.730,55.456 99.199,53.200 99.832 C 51.880 100.202,50.800 100.626,50.800 100.772 C 50.800 100.919,50.152 101.274,49.359 101.560 C 48.567 101.847,47.590 102.378,47.188 102.741 C 45.878 103.923,45.343 104.305,44.111 104.943 C 43.443 105.288,42.786 105.858,42.651 106.211 C 42.516 106.563,42.220 106.736,41.993 106.596 C 41.766 106.455,41.630 106.579,41.690 106.870 C 41.751 107.162,41.562 107.351,41.270 107.290 C 40.979 107.230,40.850 107.357,40.983 107.573 C 41.116 107.788,40.777 108.259,40.228 108.618 C 39.680 108.978,39.108 109.660,38.958 110.136 C 38.808 110.611,38.351 111.235,37.943 111.523 C 37.534 111.810,37.200 112.286,37.200 112.580 C 37.200 112.874,36.947 113.212,36.638 113.330 C 36.328 113.449,35.957 114.083,35.813 114.740 C 35.669 115.396,35.315 116.024,35.026 116.135 C 34.737 116.245,34.374 117.013,34.219 117.840 C 34.040 118.795,33.823 119.161,33.626 118.842 C 33.438 118.538,33.129 119.288,32.843 120.742 C 32.584 122.062,32.209 123.201,32.011 123.272 C 30.849 123.686,30.377 141.926,31.518 142.306 C 31.791 142.397,31.876 142.919,31.734 143.628 C 31.597 144.314,31.670 144.800,31.910 144.800 C 32.136 144.800,32.536 145.700,32.800 146.800 C 33.064 147.900,33.403 148.800,33.553 148.800 C 33.703 148.800,34.064 149.609,34.356 150.597 C 34.648 151.585,35.042 152.298,35.232 152.181 C 35.421 152.063,35.692 152.427,35.833 152.989 C 35.974 153.551,36.294 154.143,36.545 154.305 C 37.163 154.706,38.000 156.252,38.000 156.995 C 38.000 157.328,38.180 157.600,38.400 157.600 C 38.909 157.600,43.200 161.906,43.200 162.418 C 43.200 162.628,43.335 162.759,43.500 162.708 C 43.920 162.579,49.600 168.208,49.600 168.753 C 49.600 168.999,49.150 169.200,48.600 169.200 C 48.050 169.200,47.645 169.409,47.700 169.664 C 47.755 169.918,46.990 170.335,46.000 170.590 C 44.977 170.852,44.459 171.142,44.800 171.260 C 45.150 171.381,44.523 171.759,43.297 172.167 C 42.140 172.552,41.284 173.013,41.395 173.191 C 41.588 173.505,40.623 174.094,39.800 174.165 C 39.580 174.184,39.400 174.450,39.400 174.756 C 39.400 175.062,39.054 175.512,38.632 175.756 C 37.503 176.409,34.000 179.942,34.000 180.429 C 34.000 180.659,33.820 180.736,33.600 180.600 C 33.380 180.464,33.200 180.644,33.200 181.000 C 33.200 181.356,33.016 181.533,32.790 181.394 C 32.565 181.255,32.406 181.289,32.437 181.470 C 32.584 182.315,32.359 182.822,31.948 182.568 C 31.674 182.399,31.569 182.506,31.680 182.841 C 31.781 183.144,31.670 183.613,31.432 183.883 C 30.325 185.137,30.150 185.451,30.303 185.909 C 30.393 186.179,30.279 186.400,30.049 186.400 C 29.820 186.400,29.409 187.165,29.136 188.100 C 28.862 189.035,28.493 189.902,28.314 190.027 C 28.135 190.152,27.771 191.322,27.505 192.627 C 27.240 193.932,26.837 195.129,26.611 195.286 C 25.974 195.728,26.059 210.486,26.700 210.700 C 26.975 210.792,27.200 211.042,27.200 211.257 C 27.200 211.472,27.001 211.524,26.759 211.374 C 26.516 211.224,26.603 211.538,26.953 212.071 C 27.302 212.605,27.636 213.707,27.694 214.520 C 27.752 215.333,27.991 215.999,28.224 215.999 C 28.458 216.000,28.879 216.900,29.161 218.000 C 29.443 219.100,29.852 220.000,30.070 220.000 C 30.288 220.000,30.392 220.223,30.301 220.496 C 30.210 220.769,30.384 221.241,30.688 221.545 C 30.991 221.848,31.342 222.612,31.468 223.242 C 31.594 223.872,31.855 224.289,32.049 224.170 C 32.242 224.050,32.400 224.117,32.400 224.318 C 32.400 224.644,32.932 225.339,34.990 227.700 C 35.325 228.085,35.497 228.400,35.371 228.400 C 34.967 228.400,36.176 229.436,36.900 229.710 C 37.285 229.856,37.600 230.251,37.600 230.587 C 37.600 230.924,37.881 231.200,38.224 231.200 C 38.567 231.200,38.742 231.371,38.612 231.580 C 38.483 231.789,38.743 232.155,39.189 232.394 C 39.635 232.633,40.000 233.092,40.000 233.414 C 40.000 233.736,40.287 234.000,40.637 234.000 C 40.988 234.000,41.369 234.360,41.484 234.800 C 41.599 235.240,41.868 235.600,42.083 235.600 C 42.297 235.600,42.829 236.005,43.266 236.500 C 43.703 236.995,43.929 237.147,43.769 236.838 C 43.576 236.469,43.634 236.374,43.938 236.562 C 44.192 236.719,44.400 237.086,44.400 237.377 C 44.400 237.668,44.778 238.006,45.240 238.126 C 45.704 238.248,45.962 238.538,45.816 238.774 C 45.669 239.012,46.007 239.374,46.576 239.591 C 47.139 239.805,47.600 240.085,47.600 240.214 C 47.600 240.342,47.375 240.338,47.100 240.205 C 46.825 240.072,47.005 240.263,47.500 240.630 C 47.995 240.997,48.400 241.546,48.400 241.849 C 48.400 242.152,48.687 242.400,49.037 242.400 C 49.388 242.400,49.769 242.760,49.884 243.200 C 49.999 243.640,50.320 244.000,50.598 244.000 C 50.875 244.000,51.403 244.405,51.770 244.900 C 52.137 245.395,52.304 245.530,52.141 245.200 C 51.979 244.870,53.096 245.860,54.624 247.400 C 56.236 249.026,57.233 250.323,57.001 250.494 C 56.772 250.662,56.888 250.790,57.272 250.794 C 57.641 250.797,59.801 252.636,62.072 254.879 C 64.342 257.123,65.975 258.822,65.700 258.656 C 65.424 258.489,65.200 258.543,65.200 258.776 C 65.200 259.009,65.487 259.200,65.837 259.200 C 66.188 259.200,66.569 259.560,66.684 260.000 C 66.799 260.440,67.063 260.800,67.270 260.800 C 67.478 260.800,67.533 260.575,67.394 260.300 C 67.127 259.773,67.844 260.623,68.715 261.865 C 68.998 262.269,69.107 262.349,68.956 262.043 C 68.607 261.333,124.755 317.487,125.719 318.812 C 126.114 319.355,126.302 319.530,126.136 319.200 C 125.765 318.461,133.121 325.847,134.119 327.215 C 134.514 327.757,134.703 327.930,134.539 327.600 C 134.375 327.270,135.863 328.620,137.846 330.600 C 139.828 332.580,141.400 334.308,141.339 334.440 C 141.278 334.572,141.665 334.914,142.200 335.200 C 142.735 335.486,143.078 335.873,142.963 336.060 C 142.847 336.247,142.923 336.400,143.131 336.400 C 143.642 336.400,148.019 340.687,149.129 342.276 C 149.619 342.978,150.379 343.666,150.816 343.805 C 151.254 343.944,151.529 344.192,151.428 344.355 C 151.326 344.519,151.763 344.960,152.397 345.335 C 153.032 345.710,153.665 346.375,153.804 346.814 C 153.944 347.253,154.205 347.521,154.385 347.409 C 154.565 347.298,155.006 347.655,155.365 348.203 C 155.725 348.752,156.227 349.200,156.481 349.200 C 156.735 349.200,157.496 349.797,158.172 350.526 C 158.847 351.256,159.726 351.975,160.125 352.124 C 160.545 352.280,160.730 352.590,160.564 352.859 C 160.378 353.159,160.452 353.215,160.770 353.018 C 161.070 352.833,161.495 353.044,161.855 353.557 C 162.180 354.020,162.662 354.400,162.926 354.400 C 163.191 354.400,163.632 354.760,163.907 355.200 C 164.182 355.640,164.675 356.000,165.003 356.000 C 165.332 356.000,165.600 356.141,165.600 356.314 C 165.600 356.486,166.143 356.948,166.807 357.341 C 167.471 357.733,167.908 358.226,167.777 358.437 C 167.647 358.647,167.689 358.780,167.870 358.731 C 168.452 358.573,170.000 359.240,170.000 359.648 C 170.000 359.864,170.540 360.230,171.200 360.460 C 171.859 360.690,172.296 361.045,172.170 361.249 C 172.044 361.453,172.089 361.578,172.270 361.528 C 172.716 361.403,175.329 362.802,175.685 363.356 C 175.842 363.600,176.112 363.824,176.285 363.854 C 177.274 364.023,178.400 364.538,178.400 364.821 C 178.400 365.001,179.028 365.375,179.796 365.653 C 180.729 365.991,181.028 366.262,180.696 366.473 C 180.302 366.723,180.303 366.799,180.700 366.844 C 180.975 366.875,181.380 366.945,181.600 367.000 C 181.820 367.055,182.257 367.123,182.571 367.150 C 182.886 367.178,183.458 367.515,183.843 367.900 C 184.228 368.285,184.646 368.615,184.771 368.633 C 185.878 368.790,187.157 369.346,187.000 369.601 C 186.892 369.774,187.083 370.023,187.423 370.154 C 187.777 370.289,187.937 370.222,187.797 369.995 C 187.663 369.778,187.724 369.600,187.934 369.600 C 188.143 369.600,188.422 369.881,188.554 370.225 C 188.686 370.569,188.976 370.739,189.197 370.602 C 189.419 370.465,189.600 370.498,189.600 370.676 C 189.600 370.854,190.074 371.027,190.653 371.061 C 191.231 371.094,191.816 371.290,191.952 371.495 C 192.089 371.701,193.055 372.118,194.100 372.422 C 195.145 372.726,196.000 373.160,196.000 373.387 C 196.000 373.614,196.405 373.834,196.900 373.876 C 198.610 374.022,200.400 374.492,200.400 374.795 C 200.400 374.963,201.480 375.340,202.800 375.633 C 204.120 375.925,205.200 376.292,205.200 376.446 C 205.200 376.601,206.467 376.954,208.015 377.231 C 209.564 377.507,210.629 377.859,210.382 378.011 C 210.101 378.185,210.239 378.369,210.747 378.502 C 211.195 378.619,211.647 378.509,211.750 378.258 C 211.885 377.932,212.034 377.925,212.270 378.233 C 212.451 378.472,214.217 378.889,216.194 379.162 C 218.170 379.434,219.880 379.794,219.994 379.962 C 220.209 380.282,229.115 381.360,230.722 381.262 C 231.242 381.230,231.537 381.379,231.398 381.603 C 231.238 381.862,235.316 382.000,243.176 382.000 C 249.789 382.000,255.200 381.846,255.200 381.657 C 255.200 381.341,257.301 381.056,263.392 380.549 C 264.708 380.439,265.881 380.193,265.999 380.002 C 266.117 379.811,267.830 379.441,269.807 379.179 C 271.783 378.918,273.549 378.500,273.730 378.252 C 273.969 377.925,274.112 377.922,274.244 378.242 C 274.346 378.487,274.905 378.592,275.503 378.478 C 276.382 378.310,276.446 378.227,275.857 378.020 C 275.416 377.865,276.315 377.569,278.168 377.257 C 279.835 376.977,281.200 376.603,281.200 376.425 C 281.200 376.142,283.662 375.513,285.117 375.425 C 285.401 375.407,285.761 375.192,285.917 374.947 C 286.182 374.529,288.357 373.841,289.517 373.808 C 289.801 373.800,290.168 373.576,290.332 373.310 C 290.496 373.044,291.573 372.586,292.726 372.291 C 293.878 371.996,294.705 371.638,294.562 371.495 C 294.419 371.353,295.135 371.027,296.151 370.771 C 297.168 370.515,298.000 370.163,298.000 369.990 C 298.000 369.817,298.405 369.764,298.900 369.872 C 299.609 370.027,299.674 369.981,299.208 369.654 C 298.745 369.330,298.986 369.180,300.308 368.968 C 301.344 368.803,302.000 368.485,302.000 368.149 C 302.000 367.847,302.135 367.638,302.300 367.685 C 302.465 367.732,303.009 367.543,303.508 367.266 C 304.008 366.990,304.593 366.872,304.808 367.005 C 305.024 367.138,305.201 367.012,305.203 366.724 C 305.206 366.182,306.947 365.200,307.903 365.200 C 308.202 365.200,308.336 365.020,308.200 364.800 C 307.978 364.440,308.503 364.227,309.300 364.353 C 309.465 364.379,309.600 364.220,309.600 364.000 C 309.600 363.780,309.941 363.600,310.357 363.600 C 310.774 363.600,311.211 363.348,311.329 363.040 C 311.447 362.732,312.188 362.268,312.976 362.008 C 313.763 361.748,314.313 361.383,314.198 361.197 C 314.083 361.010,314.351 360.743,314.794 360.602 C 315.237 360.461,315.600 360.159,315.600 359.930 C 315.600 359.702,315.879 359.622,316.221 359.753 C 316.577 359.889,316.737 359.822,316.597 359.595 C 316.389 359.259,316.820 359.058,317.610 359.123 C 317.725 359.132,318.265 358.778,318.810 358.335 C 319.354 357.893,319.547 357.664,319.238 357.827 C 318.868 358.023,318.774 357.966,318.962 357.662 C 319.119 357.408,319.512 357.200,319.836 357.200 C 320.160 357.200,320.517 356.961,320.629 356.668 C 320.741 356.376,321.448 355.895,322.199 355.601 C 322.949 355.306,323.475 354.921,323.366 354.745 C 323.257 354.568,323.818 354.153,324.613 353.820 C 325.407 353.488,325.950 353.042,325.818 352.828 C 325.686 352.615,325.988 352.224,326.489 351.960 C 326.990 351.696,328.223 350.652,329.229 349.640 C 330.234 348.628,331.539 347.545,332.129 347.232 C 332.718 346.920,333.200 346.513,333.200 346.327 C 333.200 346.140,333.785 345.632,334.500 345.196 C 335.215 344.760,335.647 344.402,335.460 344.401 C 335.274 344.401,336.174 343.352,337.460 342.071 C 338.747 340.789,340.039 339.290,340.331 338.738 C 340.624 338.187,341.389 337.425,342.031 337.045 C 342.674 336.665,343.200 336.192,343.200 335.993 C 343.200 335.794,343.605 335.238,344.100 334.757 C 344.595 334.276,344.730 334.028,344.400 334.207 C 344.070 334.385,344.295 334.060,344.900 333.485 C 345.505 332.909,346.000 332.250,346.000 332.019 C 346.000 331.789,346.270 331.600,346.600 331.600 C 346.930 331.600,347.171 331.465,347.136 331.300 C 347.016 330.729,347.750 329.398,348.474 328.877 C 348.873 328.590,349.200 328.160,349.200 327.921 C 349.200 327.683,349.515 327.258,349.900 326.976 C 350.285 326.695,350.623 326.270,350.650 326.032 C 350.678 325.795,350.723 325.420,350.750 325.200 C 350.778 324.980,351.017 324.845,351.282 324.900 C 351.547 324.955,351.787 324.820,351.815 324.600 C 351.926 323.743,352.798 322.000,353.115 322.000 C 353.300 322.000,353.698 321.370,354.000 320.600 C 354.302 319.830,354.674 319.200,354.826 319.200 C 354.978 319.200,355.321 318.673,355.588 318.029 C 355.855 317.385,356.338 316.756,356.662 316.632 C 356.986 316.507,357.151 316.245,357.030 316.048 C 356.908 315.852,357.075 315.470,357.400 315.200 C 357.725 314.930,357.893 314.550,357.772 314.355 C 357.651 314.160,357.715 314.000,357.912 314.000 C 358.110 314.000,358.508 313.286,358.796 312.413 C 359.084 311.541,359.452 310.909,359.614 311.009 C 359.776 311.109,360.040 310.788,360.201 310.296 C 360.361 309.803,360.539 309.265,360.596 309.100 C 360.653 308.935,360.723 308.519,360.750 308.176 C 360.780 307.808,360.991 307.671,361.268 307.842 C 361.583 308.036,361.652 307.913,361.481 307.466 C 361.340 307.100,361.378 306.800,361.565 306.800 C 361.752 306.800,362.109 305.990,362.358 305.000 C 362.608 304.010,362.955 303.200,363.130 303.200 C 363.305 303.200,363.677 302.310,363.955 301.223 C 364.234 300.136,364.659 299.180,364.900 299.100 C 365.140 299.020,365.387 298.605,365.449 298.177 C 365.712 296.347,366.149 294.981,366.556 294.717 C 366.796 294.561,367.007 294.201,367.025 293.917 C 367.113 292.462,367.742 290.000,368.025 290.000 C 368.203 290.000,368.577 288.635,368.857 286.968 C 369.223 284.793,369.459 284.142,369.691 284.668 C 369.913 285.169,369.957 285.009,369.829 284.158 C 369.727 283.475,369.795 282.755,369.981 282.558 C 370.167 282.361,370.530 280.583,370.787 278.607 C 371.044 276.630,371.396 274.920,371.568 274.807 C 371.740 274.693,372.113 272.035,372.397 268.900 C 372.680 265.765,373.067 263.200,373.256 263.200 C 373.445 263.200,373.600 258.520,373.600 252.800 C 373.600 247.080,373.443 242.400,373.252 242.400 C 373.060 242.400,372.677 239.790,372.400 236.600 C 372.123 233.410,371.742 230.800,371.553 230.800 C 371.364 230.800,371.209 230.395,371.208 229.900 C 371.207 228.110,370.262 222.800,369.945 222.800 C 369.766 222.800,369.721 222.215,369.844 221.500 C 369.983 220.688,369.934 220.387,369.711 220.698 C 369.479 221.023,369.180 220.155,368.850 218.191 C 368.573 216.539,368.209 215.271,368.042 215.374 C 367.876 215.477,367.508 214.400,367.226 212.981 C 366.944 211.561,366.553 210.400,366.357 210.400 C 366.160 210.400,366.000 209.947,366.000 209.394 C 366.000 208.194,365.111 205.200,364.755 205.200 C 364.617 205.200,364.266 204.345,363.975 203.300 C 363.684 202.255,363.211 201.162,362.923 200.871 C 362.635 200.581,362.377 199.996,362.350 199.571 C 362.260 198.183,362.207 198.035,361.522 197.234 C 361.149 196.799,360.724 195.803,360.578 195.021 C 360.431 194.240,360.132 193.600,359.913 193.600 C 359.694 193.600,359.622 193.321,359.753 192.979 C 359.884 192.638,359.845 192.449,359.666 192.559 C 359.487 192.670,359.113 191.869,358.834 190.780 C 358.554 189.691,358.202 188.800,358.050 188.800 C 357.899 188.800,357.535 187.990,357.243 187.000 C 356.951 186.010,356.584 185.200,356.428 185.200 C 356.272 185.200,355.900 184.300,355.600 183.200 C 355.300 182.100,354.925 181.200,354.765 181.200 C 354.605 181.200,354.243 180.300,353.961 179.200 C 353.679 178.100,353.308 177.200,353.137 177.200 C 352.965 177.200,352.940 176.900,353.081 176.534 C 353.247 176.101,353.180 175.965,352.888 176.145 C 352.503 176.384,351.966 174.831,351.800 173.000 C 351.780 172.780,351.578 172.635,351.351 172.677 C 351.125 172.719,350.711 171.864,350.433 170.777 C 350.154 169.690,349.795 168.800,349.635 168.800 C 349.475 168.800,349.100 167.900,348.800 166.800 C 348.500 165.700,348.125 164.800,347.965 164.800 C 347.805 164.800,347.446 163.909,347.166 162.820 C 346.887 161.731,346.541 160.913,346.397 161.002 C 346.253 161.091,345.889 160.261,345.588 159.157 C 345.288 158.053,344.905 157.065,344.738 156.962 C 344.571 156.859,344.548 156.481,344.685 156.122 C 344.843 155.711,344.776 155.568,344.505 155.735 C 344.239 155.900,343.880 155.244,343.567 154.021 C 343.287 152.931,342.942 152.112,342.800 152.200 C 342.658 152.288,342.313 151.469,342.034 150.380 C 341.754 149.291,341.363 148.400,341.163 148.400 C 340.963 148.400,340.829 148.265,340.865 148.100 C 340.900 147.935,340.720 147.293,340.465 146.674 C 340.209 146.055,340.000 145.380,340.000 145.174 C 340.000 144.968,339.842 144.800,339.650 144.800 C 339.457 144.800,339.157 144.215,338.983 143.500 C 338.548 141.717,338.499 141.477,338.446 140.876 C 338.421 140.588,338.237 140.454,338.037 140.577 C 337.838 140.700,337.444 139.901,337.162 138.801 C 336.879 137.700,336.520 136.800,336.362 136.800 C 336.204 136.800,336.164 136.395,336.272 135.900 C 336.423 135.212,336.374 135.135,336.066 135.572 C 335.756 136.013,335.591 135.784,335.350 134.572 C 335.177 133.708,335.005 132.865,334.968 132.700 C 334.931 132.535,334.875 132.085,334.844 131.700 C 334.801 131.166,334.709 131.125,334.453 131.527 C 334.225 131.887,333.957 131.476,333.608 130.227 C 333.326 129.222,332.959 128.400,332.793 128.400 C 332.626 128.400,332.372 127.776,332.229 127.013 C 332.086 126.250,331.732 125.390,331.444 125.101 C 331.155 124.812,330.681 123.646,330.389 122.508 C 330.098 121.371,329.711 120.532,329.529 120.644 C 329.226 120.831,329.047 120.120,329.093 118.900 C 329.103 118.625,328.932 118.400,328.713 118.400 C 328.494 118.400,328.421 118.123,328.550 117.785 C 328.680 117.447,328.539 117.075,328.237 116.959 C 327.904 116.831,327.774 116.419,327.907 115.912 C 328.051 115.361,327.974 115.169,327.683 115.349 C 327.303 115.583,326.764 114.017,326.600 112.200 C 326.580 111.980,326.363 111.839,326.119 111.888 C 325.874 111.936,325.459 111.081,325.197 109.989 C 324.935 108.896,324.590 108.082,324.431 108.181 C 324.271 108.279,323.913 107.469,323.634 106.380 C 323.354 105.291,322.997 104.400,322.839 104.400 C 322.681 104.400,322.318 103.489,322.033 102.376 C 321.747 101.263,321.410 100.457,321.283 100.584 C 321.019 100.847,319.615 96.571,319.606 95.476 C 319.603 95.078,319.425 94.861,319.212 94.993 C 318.848 95.217,318.499 94.355,318.241 92.598 C 318.180 92.183,317.921 91.774,317.665 91.688 C 317.409 91.603,317.200 91.358,317.200 91.143 C 317.200 90.928,317.425 90.867,317.700 91.006 C 317.975 91.145,317.897 91.010,317.527 90.705 C 317.156 90.400,316.732 89.667,316.583 89.075 C 316.435 88.484,316.173 88.000,316.001 88.000 C 315.829 88.000,315.572 87.376,315.429 86.613 C 315.286 85.850,314.921 84.978,314.618 84.675 C 314.140 84.197,313.646 82.515,313.509 80.900 C 313.486 80.625,313.257 80.400,313.000 80.400 C 312.485 80.400,311.513 77.664,311.841 77.134 C 311.954 76.950,311.857 76.800,311.624 76.800 C 311.391 76.800,311.200 76.459,311.200 76.043 C 311.200 75.626,310.930 75.182,310.600 75.055 C 310.270 74.929,310.000 74.576,310.000 74.271 C 310.000 73.966,309.545 73.196,308.989 72.558 C 307.384 70.721,307.200 70.459,307.200 70.017 C 307.200 69.788,307.047 69.600,306.859 69.600 C 306.306 69.600,303.960 67.201,304.504 67.191 C 304.777 67.186,304.411 66.891,303.690 66.536 C 302.970 66.181,302.074 65.372,301.699 64.737 C 301.315 64.086,300.787 63.673,300.488 63.788 C 300.197 63.899,300.056 63.834,300.174 63.642 C 300.293 63.450,299.852 63.070,299.195 62.798 C 298.538 62.526,298.000 62.159,298.000 61.982 C 298.000 61.806,297.370 61.454,296.600 61.200 C 295.830 60.946,295.200 60.586,295.200 60.401 C 295.200 60.215,294.658 59.945,293.996 59.799 C 293.334 59.654,292.527 59.270,292.203 58.946 C 291.879 58.622,291.206 58.277,290.707 58.180 C 290.208 58.083,289.197 57.889,288.460 57.750 C 287.644 57.595,287.308 57.380,287.601 57.199 C 287.893 57.019,287.595 56.831,286.841 56.721 C 286.158 56.620,285.600 56.692,285.600 56.878 C 285.600 57.065,285.195 56.959,284.700 56.643 C 283.825 56.083,273.208 56.009,270.400 56.543 C 269.850 56.648,269.074 56.748,268.676 56.767 C 268.278 56.785,268.054 56.964,268.177 57.163 C 268.301 57.363,267.148 57.751,265.615 58.025 C 264.083 58.299,262.920 58.671,263.032 58.851 C 263.143 59.032,262.419 59.385,261.422 59.636 C 260.426 59.887,259.699 60.237,259.809 60.414 C 259.918 60.591,259.376 60.944,258.604 61.199 C 257.832 61.454,257.200 61.825,257.200 62.023 C 257.200 62.222,256.750 62.498,256.200 62.636 C 255.650 62.774,255.200 63.118,255.200 63.401 C 255.200 63.844,254.336 64.456,253.554 64.565 C 253.084 64.632,249.326 68.605,249.076 69.300 C 248.938 69.685,248.539 70.000,248.189 70.000 C 247.839 70.000,247.665 70.181,247.802 70.403 C 247.939 70.624,247.781 70.909,247.451 71.036 C 247.121 71.163,246.948 71.521,247.068 71.833 C 247.188 72.145,247.082 72.400,246.833 72.400 C 246.584 72.400,246.209 72.850,246.000 73.400 C 245.791 73.950,245.435 74.400,245.210 74.400 C 244.984 74.400,244.800 74.672,244.800 75.005 C 244.800 75.577,244.056 77.164,243.583 77.600 C 243.464 77.710,243.112 78.610,242.800 79.600 C 242.488 80.590,242.114 81.490,241.968 81.600 C 241.582 81.890,240.800 85.802,240.800 87.443 C 240.800 88.277,240.638 88.747,240.400 88.600 C 239.952 88.323,239.961 88.214,239.959 93.993 C 239.958 96.574,240.120 98.240,240.379 98.326 C 240.610 98.403,240.800 98.962,240.800 99.567 C 240.800 101.569,241.689 105.192,242.116 104.928 C 242.370 104.771,242.440 105.003,242.301 105.537 C 242.177 106.011,242.238 106.500,242.438 106.623 C 242.637 106.746,242.800 107.135,242.800 107.487 C 242.800 107.981,242.587 107.907,241.866 107.163 C 241.352 106.634,240.944 106.110,240.959 106.000 C 241.002 105.690,238.805 103.600,238.436 103.600 C 237.782 103.600,233.995 99.532,234.256 99.110 C 234.407 98.865,234.339 98.791,234.099 98.939 C 233.866 99.083,232.505 98.031,231.075 96.600 C 229.644 95.170,228.535 94.000,228.610 94.000 C 228.684 94.000,227.301 92.605,225.536 90.900 C 223.770 89.195,221.593 87.035,220.698 86.100 C 219.803 85.165,218.920 84.400,218.737 84.400 C 218.555 84.400,214.909 80.890,210.635 76.600 C 206.362 72.310,202.981 68.800,203.122 68.800 C 203.263 68.800,202.933 68.494,202.389 68.120 C 201.845 67.746,201.165 67.116,200.877 66.720 C 200.590 66.324,200.158 66.000,199.918 66.000 C 199.250 66.000,194.790 61.347,195.115 60.988 C 195.272 60.814,195.184 60.796,194.919 60.948 C 194.629 61.114,194.199 60.783,193.835 60.112 C 193.503 59.500,193.225 59.161,193.216 59.358 C 193.207 59.556,192.709 59.196,192.110 58.558 C 191.510 57.921,191.060 57.265,191.110 57.100 C 191.159 56.935,191.033 56.800,190.828 56.800 C 190.624 56.800,188.226 54.584,185.500 51.876 C 182.774 49.168,180.332 47.023,180.072 47.109 C 179.812 47.196,179.600 46.976,179.600 46.621 C 179.600 46.266,179.331 45.872,179.002 45.746 C 178.674 45.619,178.504 45.356,178.625 45.160 C 178.746 44.964,178.391 44.596,177.835 44.343 C 177.280 44.090,176.928 43.717,177.053 43.515 C 177.178 43.312,176.919 43.052,176.477 42.936 C 176.035 42.821,175.584 42.383,175.474 41.963 C 175.365 41.543,175.009 41.200,174.684 41.200 C 174.359 41.200,173.999 40.840,173.884 40.400 C 173.769 39.960,173.388 39.600,173.037 39.600 C 172.687 39.600,172.400 39.319,172.400 38.976 C 172.400 38.633,172.229 38.459,172.020 38.588 C 171.811 38.717,170.243 37.378,168.537 35.611 C 166.831 33.845,165.198 32.400,164.909 32.400 C 164.620 32.400,164.180 31.956,163.933 31.413 C 163.685 30.869,163.329 30.520,163.142 30.636 C 162.954 30.752,162.800 30.646,162.800 30.400 C 162.800 30.154,162.620 30.064,162.400 30.200 C 162.180 30.336,162.000 30.278,162.000 30.072 C 162.000 29.866,161.415 29.458,160.700 29.165 C 159.985 28.873,159.162 28.401,158.872 28.117 C 158.582 27.834,157.862 27.481,157.272 27.334 C 156.682 27.188,156.020 26.831,155.800 26.542 C 155.580 26.253,154.680 25.905,153.800 25.768 C 152.920 25.632,152.075 25.318,151.922 25.072 C 151.769 24.825,151.515 24.751,151.359 24.908 C 151.202 25.065,150.851 25.008,150.579 24.782 C 150.307 24.556,148.254 24.260,146.018 24.124 C 143.618 23.978,142.167 23.740,142.476 23.544 C 142.799 23.340,142.308 23.212,141.200 23.212 C 139.892 23.212,139.564 23.318,140.000 23.600 M148.833 46.035 C 151.092 47.226,159.531 55.506,219.119 114.994 C 256.364 152.177,287.412 182.915,288.113 183.300 C 290.551 184.639,293.117 184.094,294.196 182.008 C 295.686 179.127,295.274 177.613,288.364 160.519 C 282.005 144.789,279.857 139.510,278.388 136.000 C 277.973 135.010,276.352 130.960,274.785 127.000 C 273.218 123.040,271.680 119.277,271.368 118.639 C 271.056 118.000,270.800 117.323,270.800 117.134 C 270.800 116.946,270.449 116.028,270.020 115.096 C 265.370 104.983,262.209 95.553,262.509 92.690 C 263.516 83.088,272.688 76.583,281.893 78.941 C 288.215 80.561,289.801 82.609,295.571 96.600 C 299.667 106.532,300.556 108.665,301.236 110.200 C 301.626 111.079,306.076 121.820,308.279 127.200 C 309.045 129.070,309.947 131.230,310.283 132.000 C 311.227 134.161,311.608 135.076,316.201 146.200 C 318.562 151.920,320.923 157.550,321.447 158.712 C 321.971 159.873,322.400 160.887,322.400 160.964 C 322.400 161.041,324.491 166.121,327.048 172.252 C 329.604 178.384,332.769 186.010,334.081 189.200 C 335.394 192.390,336.704 195.540,336.993 196.200 C 338.211 198.982,340.800 205.239,340.800 205.401 C 340.800 205.497,341.231 206.527,341.757 207.688 C 350.206 226.330,353.836 251.369,350.414 267.400 C 350.226 268.280,349.858 270.260,349.596 271.800 C 337.646 342.008,258.477 380.976,194.200 348.287 C 178.475 340.290,180.773 342.371,116.829 278.198 C 55.822 216.971,50.644 211.707,49.756 210.000 C 44.456 199.814,51.563 187.925,63.000 187.842 C 69.958 187.792,66.050 184.405,112.800 231.006 C 158.073 276.136,155.227 273.600,160.600 273.600 C 167.038 273.600,170.958 269.664,170.958 263.200 C 170.958 257.741,179.057 266.348,101.861 189.773 C 54.988 143.276,54.632 142.905,53.364 139.200 C 49.433 127.713,60.301 115.926,71.647 119.369 C 76.022 120.697,75.852 120.537,127.000 171.602 C 180.290 224.807,178.369 223.016,182.708 223.511 C 191.239 224.484,197.443 215.938,193.799 208.234 C 192.952 206.444,183.790 197.155,134.417 148.028 C 99.115 112.902,75.455 89.062,74.565 87.721 C 65.783 74.490,81.535 58.418,95.148 66.720 C 96.879 67.776,104.716 75.273,122.487 92.875 C 193.832 163.540,215.298 184.605,216.728 185.353 C 223.587 188.938,231.756 183.880,231.733 176.063 C 231.718 170.885,234.931 174.403,179.626 119.000 C 124.010 63.285,128.026 67.647,126.818 61.641 C 124.483 50.041,138.110 40.381,148.833 46.035 M30.120 134.000 C 30.120 135.210,30.195 135.705,30.287 135.100 C 30.378 134.495,30.378 133.505,30.287 132.900 C 30.195 132.295,30.120 132.790,30.120 134.000 M293.200 211.034 C 291.330 211.573,287.460 212.660,284.600 213.450 C 281.740 214.241,277.960 215.297,276.200 215.798 C 274.440 216.299,272.640 216.798,272.200 216.906 C 266.960 218.199,254.706 221.742,253.712 222.252 C 251.066 223.610,251.081 227.964,253.737 229.394 C 255.211 230.188,255.281 230.180,260.800 228.621 C 269.425 226.183,271.859 225.500,273.000 225.200 C 273.660 225.026,275.820 224.434,277.800 223.883 C 291.835 219.979,294.895 219.162,295.019 219.286 C 295.096 219.363,294.991 220.140,294.785 221.013 C 294.580 221.886,293.783 225.570,293.015 229.200 C 292.247 232.830,291.253 237.420,290.806 239.400 C 290.089 242.578,288.537 249.758,287.003 256.999 C 286.113 261.200,288.477 263.629,292.247 262.384 C 294.372 261.683,294.673 260.818,297.601 247.000 C 298.021 245.020,298.732 241.735,299.182 239.700 C 301.301 230.112,301.682 228.349,302.402 224.800 C 302.826 222.710,303.341 220.434,303.547 219.742 C 303.916 218.497,304.152 215.601,304.052 213.531 C 303.881 210.002,299.937 209.094,293.200 211.034 M231.336 224.774 C 228.928 226.242,229.050 227.466,232.164 233.117 C 234.128 236.681,242.159 251.406,245.517 257.600 C 246.292 259.030,247.618 261.431,248.463 262.936 C 249.308 264.441,250.000 265.733,250.000 265.809 C 250.000 265.884,251.860 269.333,254.133 273.473 C 256.406 277.613,259.185 282.710,260.309 284.800 C 271.535 305.678,271.539 305.683,274.813 302.927 C 276.759 301.290,276.406 299.391,273.064 293.518 C 271.599 290.942,270.400 288.751,270.400 288.648 C 270.400 288.544,269.351 286.601,268.068 284.330 C 266.786 282.058,265.007 278.850,264.115 277.200 C 263.223 275.550,260.610 270.780,258.307 266.600 C 254.607 259.884,246.666 245.409,243.604 239.800 C 234.279 222.721,234.420 222.893,231.336 224.774 M212.523 265.983 C 211.106 266.587,210.517 267.918,209.417 273.000 C 208.845 275.640,208.031 279.330,207.608 281.200 C 207.184 283.070,206.017 288.470,205.013 293.200 C 204.010 297.930,202.941 302.790,202.638 304.000 C 199.957 314.720,200.451 317.939,204.890 318.660 C 206.347 318.896,210.573 317.851,226.200 313.392 C 227.960 312.890,231.200 311.989,233.400 311.391 C 244.026 308.500,251.450 306.290,251.960 305.867 C 253.792 304.348,253.789 301.019,251.953 299.357 C 250.509 298.050,248.569 298.427,232.000 303.235 C 230.570 303.650,226.880 304.686,223.800 305.538 C 220.720 306.390,216.430 307.578,214.267 308.177 C 212.103 308.776,210.248 309.182,210.144 309.078 C 209.970 308.903,210.269 307.441,212.407 298.000 C 212.831 296.130,213.636 292.440,214.196 289.800 C 214.756 287.160,215.563 283.470,215.989 281.600 C 218.885 268.882,218.947 268.253,217.439 266.837 C 216.372 265.835,213.886 265.403,212.523 265.983 " stroke="none" fill="#060606" fill-rule="evenodd"></path><path id="path1" d="M137.000 23.600 C 136.420 23.849,136.805 23.950,138.400 23.966 C 139.960 23.981,140.426 23.875,140.000 23.600 C 139.277 23.133,138.087 23.133,137.000 23.600 M142.400 23.600 C 141.978 23.873,142.511 23.981,144.200 23.966 C 145.907 23.950,146.369 23.845,145.800 23.600 C 144.709 23.131,143.126 23.131,142.400 23.600 M158.300 27.688 C 158.795 27.927,159.200 28.275,159.200 28.461 C 159.200 28.648,159.425 28.794,159.700 28.787 C 159.975 28.779,159.775 28.419,159.256 27.987 C 158.736 27.554,158.106 27.212,157.856 27.227 C 157.605 27.242,157.805 27.449,158.300 27.688 M163.992 31.500 C 164.453 32.452,165.200 32.720,165.200 31.933 C 165.200 31.677,165.083 31.584,164.940 31.727 C 164.796 31.870,164.426 31.675,164.117 31.294 C 163.614 30.671,163.601 30.692,163.992 31.500 M117.362 32.058 C 116.604 32.912,116.605 32.914,117.500 32.444 C 117.995 32.184,118.400 31.798,118.400 31.586 C 118.400 31.018,118.209 31.105,117.362 32.058 M167.025 34.048 C 169.782 36.975,171.709 38.825,171.853 38.680 C 172.046 38.487,166.509 32.800,166.128 32.800 C 165.975 32.800,166.379 33.362,167.025 34.048 M137.314 44.955 C 130.206 47.284,125.450 54.845,126.818 61.641 C 128.026 67.647,124.010 63.285,179.626 119.000 C 234.931 174.403,231.718 170.885,231.733 176.063 C 231.756 183.880,223.587 188.938,216.728 185.353 C 215.298 184.605,193.832 163.540,122.487 92.875 C 104.716 75.273,96.879 67.776,95.148 66.720 C 81.535 58.418,65.783 74.490,74.565 87.721 C 75.455 89.062,99.115 112.902,134.417 148.028 C 183.790 197.155,192.952 206.444,193.799 208.234 C 197.443 215.938,191.239 224.484,182.708 223.511 C 178.369 223.016,180.290 224.807,127.000 171.602 C 75.852 120.537,76.022 120.697,71.647 119.369 C 60.301 115.926,49.433 127.713,53.364 139.200 C 54.632 142.905,54.988 143.276,101.861 189.773 C 179.057 266.348,170.958 257.741,170.958 263.200 C 170.958 269.664,167.038 273.600,160.600 273.600 C 155.227 273.600,158.073 276.136,112.800 231.006 C 66.050 184.405,69.958 187.792,63.000 187.842 C 51.563 187.925,44.456 199.814,49.756 210.000 C 50.157 210.770,54.560 215.539,59.542 220.598 C 77.319 238.650,165.142 326.680,169.622 330.938 C 206.577 366.059,264.981 369.961,306.200 340.062 C 328.699 323.742,345.163 297.844,349.596 271.800 C 349.858 270.260,350.226 268.280,350.414 267.400 C 353.836 251.369,350.206 226.330,341.757 207.688 C 341.231 206.527,340.800 205.497,340.800 205.401 C 340.800 205.239,338.211 198.982,336.993 196.200 C 336.704 195.540,335.394 192.390,334.081 189.200 C 332.769 186.010,329.604 178.384,327.048 172.252 C 324.491 166.121,322.400 161.041,322.400 160.964 C 322.400 160.887,321.971 159.873,321.447 158.712 C 320.923 157.550,318.562 151.920,316.201 146.200 C 311.608 135.076,311.227 134.161,310.283 132.000 C 309.947 131.230,309.045 129.070,308.279 127.200 C 306.076 121.820,301.626 111.079,301.236 110.200 C 300.556 108.665,299.667 106.532,295.571 96.600 C 289.801 82.609,288.215 80.561,281.893 78.941 C 272.688 76.583,263.516 83.088,262.509 92.690 C 262.209 95.553,265.370 104.983,270.020 115.096 C 270.449 116.028,270.800 116.946,270.800 117.134 C 270.800 117.323,271.056 118.000,271.368 118.639 C 271.680 119.277,273.218 123.040,274.785 127.000 C 276.352 130.960,277.973 135.010,278.388 136.000 C 279.857 139.510,282.005 144.789,288.364 160.519 C 295.274 177.613,295.686 179.127,294.196 182.008 C 293.117 184.094,290.551 184.639,288.113 183.300 C 287.412 182.915,256.364 152.177,219.119 114.994 C 142.902 38.904,149.300 44.798,142.633 44.542 C 140.266 44.451,138.413 44.595,137.314 44.955 M97.200 45.200 C 97.200 45.420,97.560 45.600,98.000 45.600 C 98.440 45.600,98.800 45.420,98.800 45.200 C 98.800 44.980,98.440 44.800,98.000 44.800 C 97.560 44.800,97.200 44.980,97.200 45.200 M107.300 45.823 C 107.025 46.122,106.800 46.594,106.800 46.872 C 106.800 47.150,107.088 46.966,107.441 46.463 C 108.162 45.433,108.065 44.993,107.300 45.823 M61.747 53.427 C 60.839 54.381,60.171 55.238,60.265 55.332 C 60.433 55.499,64.000 52.096,64.000 51.768 C 64.000 51.301,63.240 51.861,61.747 53.427 M191.332 57.746 C 191.735 58.070,192.330 58.665,192.654 59.068 C 193.203 59.749,193.214 59.738,192.813 58.909 C 192.576 58.419,191.981 57.824,191.491 57.587 C 190.662 57.186,190.651 57.197,191.332 57.746 M292.000 58.810 C 292.000 59.127,294.427 60.106,294.653 59.880 C 294.721 59.812,294.152 59.473,293.389 59.127 C 292.625 58.781,292.000 58.638,292.000 58.810 M193.600 59.802 C 193.600 59.939,194.950 61.419,196.600 63.091 C 198.250 64.762,199.600 66.004,199.600 65.851 C 199.600 65.697,198.250 64.217,196.600 62.561 C 194.950 60.906,193.600 59.664,193.600 59.802 M253.990 64.018 C 253.586 64.774,253.615 64.797,254.376 64.322 C 255.242 63.781,255.469 63.200,254.814 63.200 C 254.602 63.200,254.231 63.568,253.990 64.018 M301.846 64.976 C 301.968 65.293,302.547 65.858,303.134 66.231 C 304.195 66.907,304.195 66.905,303.025 65.655 C 301.709 64.249,301.527 64.144,301.846 64.976 M53.241 65.923 C 52.970 66.430,52.836 67.059,52.942 67.322 C 53.053 67.594,53.150 67.512,53.168 67.133 C 53.186 66.767,53.407 66.398,53.660 66.313 C 53.913 66.229,54.033 65.899,53.927 65.581 C 53.784 65.152,53.607 65.240,53.241 65.923 M305.263 68.400 C 305.954 69.060,306.616 69.600,306.734 69.600 C 306.853 69.600,306.432 69.060,305.800 68.400 C 305.168 67.740,304.506 67.200,304.329 67.200 C 304.152 67.200,304.572 67.740,305.263 68.400 M51.600 71.000 C 51.600 71.330,51.780 71.600,52.000 71.600 C 52.220 71.600,52.400 71.330,52.400 71.000 C 52.400 70.670,52.220 70.400,52.000 70.400 C 51.780 70.400,51.600 70.670,51.600 71.000 M209.200 74.924 C 209.200 75.288,218.434 84.499,218.616 84.317 C 218.692 84.242,216.604 82.034,213.977 79.410 C 211.349 76.786,209.200 74.768,209.200 74.924 M50.951 80.800 C 50.951 83.330,51.016 84.365,51.096 83.100 C 51.175 81.835,51.175 79.765,51.096 78.500 C 51.016 77.235,50.951 78.270,50.951 80.800 M314.013 83.529 C 314.006 83.819,314.270 84.327,314.600 84.657 C 315.371 85.428,315.380 84.791,314.613 83.776 C 314.244 83.289,314.021 83.197,314.013 83.529 M240.369 86.700 C 240.353 86.865,240.279 87.314,240.205 87.698 C 240.131 88.083,240.235 88.498,240.436 88.622 C 240.636 88.746,240.800 88.297,240.800 87.624 C 240.800 86.572,240.457 85.837,240.369 86.700 M51.600 90.176 C 51.600 90.493,51.780 90.864,52.000 91.000 C 52.220 91.136,52.400 90.877,52.400 90.424 C 52.400 89.971,52.220 89.600,52.000 89.600 C 51.780 89.600,51.600 89.859,51.600 90.176 M239.740 93.200 C 239.740 95.070,239.809 95.835,239.893 94.900 C 239.977 93.965,239.977 92.435,239.893 91.500 C 239.809 90.565,239.740 91.330,239.740 93.200 M228.670 93.864 C 228.583 93.950,230.436 95.951,232.788 98.310 C 237.413 102.951,239.456 104.762,237.176 102.200 C 234.846 99.581,228.839 93.694,228.670 93.864 M54.487 98.810 C 53.956 99.659,54.237 99.817,55.197 99.211 C 55.601 98.955,55.662 98.702,55.387 98.427 C 55.111 98.151,54.821 98.275,54.487 98.810 M240.000 98.976 C 240.000 99.293,240.180 99.664,240.400 99.800 C 240.620 99.936,240.800 99.677,240.800 99.224 C 240.800 98.771,240.620 98.400,240.400 98.400 C 240.180 98.400,240.000 98.659,240.000 98.976 M50.412 100.384 C 50.088 100.589,49.963 100.896,50.133 101.067 C 50.304 101.237,50.569 101.184,50.722 100.948 C 50.875 100.713,51.270 100.417,51.600 100.292 C 52.133 100.089,52.133 100.060,51.600 100.038 C 51.270 100.024,50.735 100.180,50.412 100.384 M45.322 103.802 C 44.653 104.399,44.483 104.705,44.900 104.559 C 45.285 104.424,45.600 104.181,45.600 104.018 C 45.600 103.855,46.005 103.527,46.500 103.288 C 46.995 103.049,47.185 102.842,46.922 102.827 C 46.660 102.812,45.940 103.251,45.322 103.802 M41.129 107.277 C 40.321 108.115,39.790 108.800,39.951 108.800 C 40.336 108.800,42.996 106.050,42.773 105.883 C 42.678 105.812,41.938 106.439,41.129 107.277 M323.900 107.391 C 324.046 108.152,324.227 108.333,324.535 108.025 C 324.843 107.717,324.785 107.413,324.331 106.960 C 323.752 106.380,323.714 106.418,323.900 107.391 M32.074 122.198 C 31.823 122.749,31.772 123.200,31.962 123.200 C 32.294 123.200,32.892 121.559,32.649 121.316 C 32.584 121.250,32.325 121.647,32.074 122.198 M330.800 123.952 C 330.800 124.230,331.070 124.727,331.400 125.057 C 332.167 125.824,332.158 125.242,331.387 124.224 C 331.058 123.788,330.800 123.669,330.800 123.952 M30.363 130.500 C 30.247 133.311,30.380 138.514,30.574 138.707 C 30.698 138.832,30.800 136.833,30.800 134.267 C 30.800 130.336,30.483 127.602,30.363 130.500 M335.256 134.000 C 335.256 134.330,335.411 134.960,335.600 135.400 C 335.817 135.904,335.944 135.978,335.944 135.600 C 335.944 135.270,335.789 134.640,335.600 134.200 C 335.383 133.696,335.256 133.622,335.256 134.000 M38.403 157.700 C 38.408 157.916,43.200 162.470,43.200 162.260 C 43.200 161.981,38.875 157.600,38.600 157.600 C 38.490 157.600,38.401 157.645,38.403 157.700 M43.600 162.627 C 43.600 162.757,44.365 163.629,45.300 164.564 C 46.235 165.499,47.585 166.931,48.300 167.746 C 49.015 168.561,49.600 169.026,49.600 168.780 C 49.600 168.534,48.250 166.995,46.600 165.361 C 44.950 163.727,43.600 162.497,43.600 162.627 M349.200 168.351 C 349.200 168.598,349.367 168.800,349.571 168.800 C 349.775 168.800,350.024 169.115,350.124 169.500 C 350.279 170.091,350.314 170.098,350.354 169.549 C 350.379 169.191,350.130 168.674,349.800 168.400 C 349.385 168.056,349.200 168.041,349.200 168.351 M352.034 174.400 C 352.070 175.360,352.643 176.582,352.867 176.173 C 352.979 175.968,352.833 175.350,352.541 174.800 C 352.250 174.250,352.022 174.070,352.034 174.400 M28.019 189.777 C 27.747 190.105,27.617 190.604,27.731 190.887 C 27.866 191.223,27.948 191.170,27.968 190.733 C 27.986 190.367,28.225 189.986,28.500 189.888 C 28.775 189.790,28.891 189.591,28.757 189.445 C 28.623 189.300,28.291 189.449,28.019 189.777 M359.206 192.300 C 359.220 192.957,359.976 193.756,360.278 193.434 C 360.455 193.245,360.374 193.010,360.098 192.911 C 359.821 192.812,359.697 192.567,359.821 192.366 C 359.945 192.165,359.857 192.000,359.624 192.000 C 359.391 192.000,359.203 192.135,359.206 192.300 M26.400 194.600 C 26.400 194.930,26.580 195.200,26.800 195.200 C 27.020 195.200,27.200 194.930,27.200 194.600 C 27.200 194.270,27.020 194.000,26.800 194.000 C 26.580 194.000,26.400 194.270,26.400 194.600 M362.438 199.600 C 362.402 200.448,363.096 201.437,363.467 201.067 C 363.637 200.896,363.584 200.631,363.348 200.478 C 363.113 200.325,362.817 199.930,362.692 199.600 C 362.489 199.067,362.460 199.067,362.438 199.600 M25.724 202.600 C 25.726 203.920,25.801 204.412,25.890 203.693 C 25.979 202.974,25.977 201.894,25.886 201.293 C 25.795 200.692,25.722 201.280,25.724 202.600 M366.000 209.600 C 366.000 210.040,366.180 210.400,366.400 210.400 C 366.620 210.400,366.800 210.040,366.800 209.600 C 366.800 209.160,366.620 208.800,366.400 208.800 C 366.180 208.800,366.000 209.160,366.000 209.600 M302.964 211.231 C 303.534 211.908,304.023 212.943,304.052 213.531 C 304.152 215.601,303.916 218.497,303.547 219.742 C 303.341 220.434,302.826 222.710,302.402 224.800 C 301.682 228.349,301.301 230.112,299.182 239.700 C 298.732 241.735,298.021 245.020,297.601 247.000 C 294.673 260.818,294.372 261.683,292.247 262.384 C 288.477 263.629,286.113 261.200,287.003 256.999 C 288.537 249.758,290.089 242.578,290.806 239.400 C 291.253 237.420,292.247 232.830,293.015 229.200 C 293.783 225.570,294.580 221.886,294.785 221.013 C 294.991 220.140,295.096 219.363,295.019 219.286 C 294.895 219.162,291.835 219.979,277.800 223.883 C 275.820 224.434,273.660 225.026,273.000 225.200 C 271.859 225.500,269.425 226.183,260.800 228.621 C 255.281 230.180,255.211 230.188,253.737 229.394 C 251.081 227.964,251.066 223.610,253.712 222.252 C 254.706 221.742,266.960 218.199,272.200 216.906 C 272.640 216.798,274.440 216.299,276.200 215.798 C 277.960 215.297,281.740 214.241,284.600 213.450 C 287.460 212.660,291.330 211.573,293.200 211.034 C 298.301 209.565,301.619 209.632,302.964 211.231 M234.951 224.900 C 235.811 225.677,237.179 228.033,243.604 239.800 C 246.666 245.409,254.607 259.884,258.307 266.600 C 260.610 270.780,263.223 275.550,264.115 277.200 C 265.007 278.850,266.786 282.058,268.068 284.330 C 269.351 286.601,270.400 288.544,270.400 288.648 C 270.400 288.751,271.599 290.942,273.064 293.518 C 276.406 299.391,276.759 301.290,274.813 302.927 C 271.539 305.683,271.535 305.678,260.309 284.800 C 259.185 282.710,256.406 277.613,254.133 273.473 C 251.860 269.333,250.000 265.884,250.000 265.809 C 250.000 265.733,249.308 264.441,248.463 262.936 C 247.618 261.431,246.292 259.030,245.517 257.600 C 242.159 251.406,234.128 236.681,232.164 233.117 C 229.050 227.466,228.928 226.242,231.336 224.774 C 232.976 223.773,233.734 223.800,234.951 224.900 M371.200 230.200 C 371.200 230.530,371.380 230.800,371.600 230.800 C 371.820 230.800,372.000 230.530,372.000 230.200 C 372.000 229.870,371.820 229.600,371.600 229.600 C 371.380 229.600,371.200 229.870,371.200 230.200 M372.501 237.400 C 372.505 238.280,372.587 238.593,372.683 238.095 C 372.779 237.598,372.775 236.878,372.675 236.495 C 372.575 236.113,372.496 236.520,372.501 237.400 M372.800 241.576 C 372.800 242.029,372.980 242.400,373.200 242.400 C 373.420 242.400,373.600 242.141,373.600 241.824 C 373.600 241.507,373.420 241.136,373.200 241.000 C 372.980 240.864,372.800 241.123,372.800 241.576 M52.000 244.981 C 52.000 245.344,57.153 250.589,57.304 250.379 C 57.375 250.281,56.211 248.970,54.717 247.467 C 53.222 245.964,52.000 244.845,52.000 244.981 M61.472 254.715 C 63.712 256.962,65.652 258.800,65.783 258.800 C 66.071 258.800,59.307 252.045,58.189 251.215 C 57.755 250.894,59.232 252.469,61.472 254.715 M69.160 262.277 C 69.387 262.674,82.217 275.600,97.672 291.000 C 113.127 306.400,125.508 318.648,125.186 318.219 C 124.196 316.899,68.719 261.505,69.160 262.277 M372.800 264.024 C 372.800 264.477,372.980 264.736,373.200 264.600 C 373.420 264.464,373.600 264.093,373.600 263.776 C 373.600 263.459,373.420 263.200,373.200 263.200 C 372.980 263.200,372.800 263.571,372.800 264.024 M217.439 266.837 C 218.947 268.253,218.885 268.882,215.989 281.600 C 215.563 283.470,214.756 287.160,214.196 289.800 C 213.636 292.440,212.831 296.130,212.407 298.000 C 210.269 307.441,209.970 308.903,210.144 309.078 C 210.248 309.182,212.103 308.776,214.267 308.177 C 216.430 307.578,220.720 306.390,223.800 305.538 C 226.880 304.686,230.570 303.650,232.000 303.235 C 248.569 298.427,250.509 298.050,251.953 299.357 C 253.789 301.019,253.792 304.348,251.960 305.867 C 251.450 306.290,244.026 308.500,233.400 311.391 C 231.200 311.989,227.960 312.890,226.200 313.392 C 210.573 317.851,206.347 318.896,204.890 318.660 C 200.451 317.939,199.957 314.720,202.638 304.000 C 202.941 302.790,204.010 297.930,205.013 293.200 C 206.017 288.470,207.184 283.070,207.608 281.200 C 208.031 279.330,208.845 275.640,209.417 273.000 C 210.517 267.918,211.106 266.587,212.523 265.983 C 213.886 265.403,216.372 265.835,217.439 266.837 M372.509 268.400 C 372.509 269.390,372.587 269.795,372.682 269.300 C 372.778 268.805,372.778 267.995,372.682 267.500 C 372.587 267.005,372.509 267.410,372.509 268.400 M371.206 275.700 C 371.211 276.428,371.286 276.485,371.600 276.000 C 372.101 275.224,372.101 274.800,371.600 274.800 C 371.380 274.800,371.203 275.205,371.206 275.700 M126.000 319.009 C 126.000 319.136,127.832 321.075,130.072 323.320 C 132.311 325.564,133.886 327.045,133.572 326.611 C 132.799 325.546,126.000 318.719,126.000 319.009 M134.400 327.394 C 134.400 327.754,141.160 334.582,141.312 334.375 C 141.382 334.279,139.855 332.613,137.920 330.673 C 135.984 328.733,134.400 327.257,134.400 327.394 M145.998 339.302 C 148.867 342.267,149.925 343.191,148.749 341.707 C 147.950 340.697,144.717 337.499,143.793 336.802 C 143.357 336.474,144.349 337.599,145.998 339.302 M341.600 337.313 C 341.270 337.581,340.737 338.160,340.415 338.600 C 340.094 339.040,340.409 338.871,341.115 338.225 C 342.267 337.172,342.600 336.775,342.300 336.813 C 342.245 336.820,341.930 337.045,341.600 337.313 M151.600 344.892 C 151.600 344.953,152.140 345.513,152.801 346.136 C 153.461 346.759,153.896 346.994,153.767 346.659 C 153.572 346.151,151.600 344.543,151.600 344.892 M329.281 349.494 C 328.335 350.484,327.626 351.359,327.705 351.438 C 327.784 351.517,328.731 350.686,329.809 349.591 C 330.888 348.496,331.597 347.621,331.385 347.646 C 331.173 347.672,330.226 348.503,329.281 349.494 M156.800 349.531 C 156.800 349.709,157.250 350.247,157.800 350.725 C 158.350 351.203,158.800 351.448,158.800 351.269 C 158.800 351.091,158.350 350.553,157.800 350.075 C 157.250 349.597,156.800 349.352,156.800 349.531 M160.450 352.732 C 160.708 353.144,161.256 353.692,161.668 353.950 C 162.340 354.369,162.369 354.340,161.950 353.668 C 161.692 353.256,161.144 352.708,160.732 352.450 C 160.060 352.031,160.031 352.060,160.450 352.732 M171.500 360.888 C 171.995 361.127,172.400 361.475,172.400 361.661 C 172.400 361.848,172.625 361.994,172.900 361.987 C 173.175 361.979,172.975 361.619,172.456 361.187 C 171.936 360.754,171.306 360.412,171.056 360.427 C 170.805 360.442,171.005 360.649,171.500 360.888 M268.500 379.476 C 268.885 379.576,269.515 379.576,269.900 379.476 C 270.285 379.375,269.970 379.293,269.200 379.293 C 268.430 379.293,268.115 379.375,268.500 379.476 M266.000 380.000 C 266.000 380.220,266.259 380.400,266.576 380.400 C 266.893 380.400,267.264 380.220,267.400 380.000 C 267.536 379.780,267.277 379.600,266.824 379.600 C 266.371 379.600,266.000 379.780,266.000 380.000 M225.300 381.076 C 225.685 381.176,226.315 381.176,226.700 381.076 C 227.085 380.975,226.770 380.893,226.000 380.893 C 225.230 380.893,224.915 380.975,225.300 381.076 M259.300 381.076 C 259.685 381.176,260.315 381.176,260.700 381.076 C 261.085 380.975,260.770 380.893,260.000 380.893 C 259.230 380.893,258.915 380.975,259.300 381.076 " stroke="none" fill="#fbfbfb" fill-rule="evenodd"></path></g></svg>